<?xml version="1.0" encoding="UTF-8"?>
<svg xmlns="http://www.w3.org/2000/svg" xmlns:xlink="http://www.w3.org/1999/xlink" width="2400" height="1350" viewBox="0 0 2400 1350">
<defs>
<g>
<g id="glyph-0-0">
<path d="M 2.355469 -1.410156 L 5.765625 -1.410156 L 5.765625 0 L 0.625 0 L 0.625 -1.367188 L 1.492188 -2.289062 C 2.523438 -3.386719 3.148438 -4.058594 3.367188 -4.3125 C 3.640625 -4.625 3.835938 -4.898438 3.953125 -5.140625 C 4.074219 -5.378906 4.132812 -5.617188 4.132812 -5.855469 C 4.132812 -6.214844 4.023438 -6.496094 3.804688 -6.691406 C 3.585938 -6.890625 3.277344 -6.988281 2.875 -6.988281 C 2.589844 -6.988281 2.269531 -6.929688 1.914062 -6.816406 C 1.558594 -6.703125 1.183594 -6.535156 0.796875 -6.320312 L 0.796875 -7.8125 C 1.183594 -7.953125 1.5625 -8.0625 1.933594 -8.132812 C 2.304688 -8.207031 2.660156 -8.246094 3 -8.246094 C 3.855469 -8.246094 4.53125 -8.046875 5.019531 -7.648438 C 5.511719 -7.246094 5.757812 -6.703125 5.757812 -6.011719 C 5.757812 -5.691406 5.703125 -5.394531 5.597656 -5.117188 C 5.488281 -4.835938 5.304688 -4.527344 5.046875 -4.1875 C 4.855469 -3.941406 4.328125 -3.390625 3.464844 -2.527344 C 3 -2.0625 2.628906 -1.6875 2.355469 -1.410156 Z "/>
</g>
</g>
</defs>
<g fill="rgb(10.196078%, 43.529412%, 65.882353%)" fill-opacity="1">
<use xlink:href="#glyph-0-0" x="30" y="30.3125"/>
</g>
</svg>
