<?xml version="1.0" encoding="UTF-8"?>
<svg xmlns="http://www.w3.org/2000/svg" xmlns:xlink="http://www.w3.org/1999/xlink" width="854" height="480" viewBox="0 0 854 480">
<defs>
<g>
<g id="glyph-0-0">
<path d="M 0 -4.453125 L 0.769531 -4.453125 L 1.089844 -1.183594 L 1.472656 -3.300781 L 2.203125 -3.300781 L 2.652344 -1.183594 L 2.902344 -4.453125 L 3.679688 -4.453125 L 3.164062 0 L 2.34375 0 L 1.835938 -2.339844 L 1.363281 0 L 0.550781 0 Z "/>
</g>
<g id="glyph-0-1">
<path d="M 3.679688 0.566406 L 3.679688 1.164062 L 0 1.164062 L 0 0.566406 Z "/>
</g>
<g id="glyph-0-2">
<path d="M 1.144531 -1.671875 C 1.144531 -1.351562 1.195312 -1.097656 1.304688 -0.914062 C 1.410156 -0.730469 1.558594 -0.640625 1.75 -0.640625 C 1.9375 -0.640625 2.085938 -0.734375 2.195312 -0.914062 C 2.304688 -1.097656 2.359375 -1.351562 2.359375 -1.671875 C 2.359375 -1.996094 2.304688 -2.25 2.195312 -2.429688 C 2.085938 -2.613281 1.9375 -2.707031 1.75 -2.707031 C 1.558594 -2.707031 1.410156 -2.613281 1.304688 -2.429688 C 1.195312 -2.246094 1.144531 -1.996094 1.144531 -1.671875 Z M 2.359375 -0.472656 C 2.253906 -0.285156 2.128906 -0.144531 1.984375 -0.0507812 C 1.84375 0.0390625 1.683594 0.0859375 1.503906 0.0859375 C 1.109375 0.0859375 0.804688 -0.0664062 0.589844 -0.367188 C 0.375 -0.667969 0.269531 -1.101562 0.269531 -1.667969 C 0.269531 -2.226562 0.375 -2.65625 0.585938 -2.960938 C 0.796875 -3.269531 1.09375 -3.421875 1.472656 -3.421875 C 1.675781 -3.421875 1.847656 -3.375 1.996094 -3.277344 C 2.144531 -3.179688 2.265625 -3.035156 2.359375 -2.839844 L 2.359375 -3.339844 L 3.230469 -3.339844 L 3.230469 1.269531 L 2.359375 1.269531 Z "/>
</g>
</g>
</defs>
<g fill="rgb(49.411765%, 41.960784%, 76.862745%)" fill-opacity="1">
<use xlink:href="#glyph-0-0" x="30" y="25.671875"/>
<use xlink:href="#glyph-0-1" x="34" y="25.671875"/>
<use xlink:href="#glyph-0-2" x="38" y="25.671875"/>
</g>
</svg>
