<?xml version="1.0" encoding="UTF-8"?>
<svg xmlns="http://www.w3.org/2000/svg" xmlns:xlink="http://www.w3.org/1999/xlink" width="854" height="480" viewBox="0 0 854 480">
<defs>
<g>
<g id="glyph-0-0">
<path d="M 0.617188 -3.042969 L 2.820312 -3.042969 L 2.820312 -2.589844 L 1.078125 -0.40625 L 2.820312 -0.40625 L 2.820312 0 L 0.550781 0 L 0.550781 -0.460938 L 2.296875 -2.644531 L 0.617188 -2.644531 Z "/>
</g>
<g id="glyph-0-1">
<path d="M 3.039062 -1.769531 L 3.039062 -1.523438 L 0.875 -1.523438 L 0.875 -1.507812 C 0.863281 -1.09375 0.941406 -0.796875 1.113281 -0.617188 C 1.285156 -0.433594 1.53125 -0.34375 1.84375 -0.34375 C 2.003906 -0.34375 2.171875 -0.371094 2.34375 -0.421875 C 2.515625 -0.472656 2.703125 -0.546875 2.898438 -0.652344 L 2.898438 -0.15625 C 2.710938 -0.078125 2.527344 -0.0195312 2.351562 0.0195312 C 2.175781 0.0585938 2.003906 0.078125 1.839844 0.078125 C 1.367188 0.078125 1 -0.0625 0.734375 -0.347656 C 0.46875 -0.628906 0.332031 -1.019531 0.332031 -1.515625 C 0.332031 -2 0.464844 -2.386719 0.722656 -2.675781 C 0.984375 -2.964844 1.332031 -3.113281 1.765625 -3.113281 C 2.152344 -3.113281 2.457031 -2.980469 2.679688 -2.71875 C 2.902344 -2.457031 3.023438 -2.140625 3.039062 -1.769531 Z M 2.539062 -1.914062 C 2.515625 -2.125 2.441406 -2.304688 2.308594 -2.460938 C 2.179688 -2.613281 1.992188 -2.6875 1.746094 -2.6875 C 1.503906 -2.6875 1.304688 -2.609375 1.148438 -2.449219 C 0.992188 -2.289062 0.910156 -2.113281 0.894531 -1.914062 Z "/>
</g>
<g id="glyph-0-2">
<path d="M 3.132812 -2.410156 C 3.027344 -2.496094 2.917969 -2.554688 2.808594 -2.59375 C 2.699219 -2.632812 2.578125 -2.648438 2.445312 -2.648438 C 2.132812 -2.648438 1.894531 -2.550781 1.730469 -2.355469 C 1.566406 -2.160156 1.484375 -1.878906 1.484375 -1.511719 L 1.484375 0 L 0.980469 0 L 0.980469 -3.039062 L 1.484375 -3.039062 L 1.484375 -2.445312 C 1.566406 -2.660156 1.695312 -2.824219 1.867188 -2.9375 C 2.039062 -3.054688 2.246094 -3.113281 2.480469 -3.113281 C 2.605469 -3.113281 2.71875 -3.097656 2.828125 -3.066406 C 2.933594 -3.035156 3.035156 -2.988281 3.132812 -2.921875 Z "/>
</g>
<g id="glyph-0-3">
<path d="M 1.671875 -2.6875 C 1.417969 -2.6875 1.226562 -2.589844 1.097656 -2.394531 C 0.964844 -2.195312 0.902344 -1.902344 0.902344 -1.515625 C 0.902344 -1.132812 0.964844 -0.839844 1.097656 -0.640625 C 1.226562 -0.441406 1.417969 -0.34375 1.671875 -0.34375 C 1.925781 -0.34375 2.117188 -0.445312 2.25 -0.640625 C 2.378906 -0.839844 2.445312 -1.132812 2.445312 -1.515625 C 2.445312 -1.902344 2.378906 -2.195312 2.25 -2.394531 C 2.117188 -2.589844 1.925781 -2.6875 1.671875 -2.6875 Z M 1.671875 -3.113281 C 2.09375 -3.113281 2.414062 -2.976562 2.636719 -2.703125 C 2.859375 -2.429688 2.972656 -2.035156 2.972656 -1.515625 C 2.972656 -0.996094 2.863281 -0.601562 2.640625 -0.328125 C 2.417969 -0.0585938 2.09375 0.078125 1.671875 0.078125 C 1.25 0.078125 0.929688 -0.0585938 0.707031 -0.328125 C 0.484375 -0.601562 0.371094 -0.996094 0.371094 -1.515625 C 0.371094 -2.035156 0.484375 -2.429688 0.707031 -2.703125 C 0.929688 -2.976562 1.25 -3.113281 1.671875 -3.113281 Z "/>
</g>
<g id="glyph-0-4">
<path d="M 0.277344 -1.964844 L 3.152344 -1.964844 L 3.152344 -1.503906 L 0.277344 -1.503906 Z "/>
</g>
<g id="glyph-0-5">
<path d="M 1.015625 -0.382812 L 1.015625 1.15625 L 0.515625 1.15625 L 0.515625 -3.039062 L 1.015625 -3.039062 L 1.015625 -2.648438 C 1.101562 -2.800781 1.210938 -2.914062 1.347656 -2.992188 C 1.488281 -3.070312 1.648438 -3.113281 1.828125 -3.113281 C 2.195312 -3.113281 2.484375 -2.96875 2.691406 -2.6875 C 2.902344 -2.402344 3.003906 -2.007812 3.003906 -1.503906 C 3.003906 -1.011719 2.902344 -0.625 2.691406 -0.34375 C 2.480469 -0.0625 2.195312 0.078125 1.828125 0.078125 C 1.644531 0.078125 1.484375 0.0390625 1.34375 -0.0390625 C 1.207031 -0.117188 1.097656 -0.230469 1.015625 -0.382812 Z M 2.480469 -1.515625 C 2.480469 -1.902344 2.421875 -2.195312 2.300781 -2.394531 C 2.175781 -2.589844 1.996094 -2.6875 1.753906 -2.6875 C 1.511719 -2.6875 1.328125 -2.589844 1.203125 -2.390625 C 1.078125 -2.191406 1.015625 -1.902344 1.015625 -1.515625 C 1.015625 -1.132812 1.078125 -0.84375 1.203125 -0.644531 C 1.328125 -0.445312 1.511719 -0.34375 1.753906 -0.34375 C 1.996094 -0.34375 2.175781 -0.441406 2.300781 -0.640625 C 2.421875 -0.835938 2.480469 -1.128906 2.480469 -1.515625 Z "/>
</g>
<g id="glyph-0-6">
<path d="M 0.855469 -3.027344 L 2.136719 -3.027344 L 2.136719 -0.386719 L 3.125 -0.386719 L 3.125 0 L 0.644531 0 L 0.644531 -0.386719 L 1.636719 -0.386719 L 1.636719 -2.640625 L 0.855469 -2.640625 Z M 1.636719 -4.207031 L 2.136719 -4.207031 L 2.136719 -3.578125 L 1.636719 -3.578125 Z "/>
</g>
<g id="glyph-0-7">
<path d="M 2.851562 -1.882812 L 2.851562 0 L 2.347656 0 L 2.347656 -1.882812 C 2.347656 -2.15625 2.300781 -2.355469 2.207031 -2.484375 C 2.109375 -2.613281 1.960938 -2.675781 1.753906 -2.675781 C 1.519531 -2.675781 1.34375 -2.59375 1.214844 -2.429688 C 1.089844 -2.265625 1.027344 -2.027344 1.027344 -1.71875 L 1.027344 0 L 0.527344 0 L 0.527344 -3.039062 L 1.027344 -3.039062 L 1.027344 -2.582031 C 1.117188 -2.757812 1.238281 -2.886719 1.390625 -2.976562 C 1.542969 -3.066406 1.722656 -3.113281 1.929688 -3.113281 C 2.238281 -3.113281 2.46875 -3.011719 2.621094 -2.804688 C 2.773438 -2.601562 2.851562 -2.296875 2.851562 -1.882812 Z "/>
</g>
<g id="glyph-0-8">
<path d="M 1.664062 -3.902344 L 1.664062 -3.039062 L 2.800781 -3.039062 L 2.800781 -2.648438 L 1.664062 -2.648438 L 1.664062 -1 C 1.664062 -0.777344 1.707031 -0.621094 1.792969 -0.53125 C 1.878906 -0.441406 2.027344 -0.398438 2.238281 -0.398438 L 2.800781 -0.398438 L 2.800781 0 L 2.1875 0 C 1.8125 0 1.550781 -0.0742188 1.398438 -0.226562 C 1.242188 -0.375 1.167969 -0.632812 1.167969 -1 L 1.167969 -2.648438 L 0.355469 -2.648438 L 0.355469 -3.039062 L 1.167969 -3.039062 L 1.167969 -3.902344 Z "/>
</g>
</g>
</defs>
<g fill="rgb(10.196078%, 10.196078%, 10.196078%)" fill-opacity="1">
<use xlink:href="#glyph-0-0" x="30" y="25.157227"/>
<use xlink:href="#glyph-0-1" x="33" y="25.157227"/>
<use xlink:href="#glyph-0-2" x="36" y="25.157227"/>
<use xlink:href="#glyph-0-3" x="39" y="25.157227"/>
<use xlink:href="#glyph-0-4" x="42" y="25.157227"/>
<use xlink:href="#glyph-0-5" x="45" y="25.157227"/>
<use xlink:href="#glyph-0-3" x="48" y="25.157227"/>
<use xlink:href="#glyph-0-6" x="51" y="25.157227"/>
<use xlink:href="#glyph-0-7" x="54" y="25.157227"/>
<use xlink:href="#glyph-0-8" x="57" y="25.157227"/>
</g>
</svg>
