<?xml version="1.0" encoding="UTF-8"?>
<svg xmlns="http://www.w3.org/2000/svg" xmlns:xlink="http://www.w3.org/1999/xlink" width="854" height="480" viewBox="0 0 854 480">
<defs>
<g>
<g id="glyph-0-0">
<path d="M 4.378906 -3.824219 C 4.539062 -3.792969 4.675781 -3.71875 4.792969 -3.597656 C 4.910156 -3.480469 5.054688 -3.253906 5.222656 -2.914062 L 6.6875 0 L 4.929688 0 L 3.953125 -2.046875 C 3.925781 -2.105469 3.886719 -2.183594 3.839844 -2.285156 C 3.554688 -2.894531 3.21875 -3.199219 2.832031 -3.199219 L 2.320312 -3.199219 L 2.320312 0 L 0.722656 0 L 0.722656 -8.097656 L 3.03125 -8.097656 C 4.074219 -8.097656 4.820312 -7.914062 5.277344 -7.546875 C 5.730469 -7.175781 5.957031 -6.578125 5.957031 -5.746094 C 5.957031 -5.1875 5.820312 -4.746094 5.550781 -4.414062 C 5.277344 -4.085938 4.886719 -3.890625 4.378906 -3.824219 Z M 2.320312 -6.753906 L 2.320312 -4.546875 L 3.074219 -4.546875 C 3.511719 -4.546875 3.828125 -4.632812 4.015625 -4.804688 C 4.207031 -4.976562 4.300781 -5.257812 4.300781 -5.652344 C 4.300781 -6.046875 4.207031 -6.328125 4.019531 -6.5 C 3.832031 -6.667969 3.515625 -6.753906 3.074219 -6.753906 Z "/>
</g>
<g id="glyph-0-1">
<path d="M 3.339844 -4.929688 C 2.960938 -4.929688 2.664062 -4.765625 2.445312 -4.429688 C 2.230469 -4.09375 2.121094 -3.628906 2.121094 -3.03125 C 2.121094 -2.433594 2.230469 -1.96875 2.445312 -1.636719 C 2.664062 -1.300781 2.960938 -1.132812 3.339844 -1.132812 C 3.722656 -1.132812 4.023438 -1.300781 4.242188 -1.636719 C 4.460938 -1.96875 4.566406 -2.4375 4.566406 -3.03125 C 4.566406 -3.628906 4.460938 -4.09375 4.242188 -4.429688 C 4.023438 -4.765625 3.726562 -4.929688 3.339844 -4.929688 Z M 0.53125 -3.03125 C 0.53125 -4.011719 0.785156 -4.789062 1.292969 -5.363281 C 1.800781 -5.9375 2.484375 -6.222656 3.339844 -6.222656 C 4.203125 -6.222656 4.886719 -5.9375 5.394531 -5.363281 C 5.902344 -4.789062 6.15625 -4.011719 6.15625 -3.03125 C 6.15625 -2.050781 5.902344 -1.277344 5.394531 -0.703125 C 4.886719 -0.128906 4.203125 0.15625 3.339844 0.15625 C 2.484375 0.15625 1.800781 -0.128906 1.292969 -0.703125 C 0.785156 -1.277344 0.53125 -2.050781 0.53125 -3.03125 Z "/>
</g>
<g id="glyph-0-2">
<path d="M 0.867188 -2.121094 L 0.867188 -6.074219 L 2.457031 -6.074219 L 2.457031 -2.367188 C 2.457031 -1.929688 2.519531 -1.613281 2.640625 -1.425781 C 2.765625 -1.238281 2.96875 -1.144531 3.253906 -1.144531 C 3.539062 -1.144531 3.765625 -1.269531 3.925781 -1.523438 C 4.085938 -1.777344 4.167969 -2.132812 4.167969 -2.585938 L 4.167969 -6.074219 L 5.757812 -6.074219 L 5.757812 0 L 4.167969 0 L 4.167969 -0.902344 C 4.054688 -0.566406 3.863281 -0.304688 3.59375 -0.121094 C 3.324219 0.0664062 3 0.15625 2.621094 0.15625 C 2.042969 0.15625 1.605469 -0.0351562 1.308594 -0.417969 C 1.015625 -0.800781 0.867188 -1.367188 0.867188 -2.121094 Z "/>
</g>
<g id="glyph-0-3">
<path d="M 5.808594 -3.945312 L 5.808594 0 L 4.230469 0 L 4.230469 -3.699219 C 4.230469 -4.140625 4.167969 -4.457031 4.042969 -4.648438 C 3.917969 -4.835938 3.714844 -4.929688 3.433594 -4.929688 C 3.148438 -4.929688 2.921875 -4.804688 2.757812 -4.546875 C 2.59375 -4.289062 2.511719 -3.933594 2.511719 -3.476562 L 2.511719 0 L 0.933594 0 L 0.933594 -6.074219 L 2.511719 -6.074219 L 2.511719 -5.164062 C 2.625 -5.5 2.816406 -5.761719 3.085938 -5.945312 C 3.359375 -6.128906 3.683594 -6.222656 4.070312 -6.222656 C 4.644531 -6.222656 5.078125 -6.03125 5.371094 -5.648438 C 5.664062 -5.269531 5.808594 -4.699219 5.808594 -3.945312 Z "/>
</g>
<g id="glyph-0-4">
<path d="M 4.292969 -5.214844 L 4.292969 -8.441406 L 5.875 -8.441406 L 5.875 0 L 4.292969 0 L 4.292969 -0.902344 C 4.121094 -0.550781 3.902344 -0.285156 3.632812 -0.109375 C 3.363281 0.0703125 3.046875 0.15625 2.679688 0.15625 C 1.984375 0.15625 1.445312 -0.121094 1.0625 -0.679688 C 0.679688 -1.234375 0.488281 -2.019531 0.488281 -3.03125 C 0.488281 -4.058594 0.683594 -4.847656 1.070312 -5.398438 C 1.460938 -5.949219 2.015625 -6.222656 2.734375 -6.222656 C 3.058594 -6.222656 3.351562 -6.136719 3.609375 -5.96875 C 3.867188 -5.800781 4.097656 -5.550781 4.292969 -5.214844 Z M 2.078125 -3.023438 C 2.078125 -2.4375 2.175781 -1.976562 2.371094 -1.644531 C 2.566406 -1.3125 2.835938 -1.144531 3.179688 -1.144531 C 3.523438 -1.144531 3.792969 -1.3125 3.992188 -1.644531 C 4.191406 -1.976562 4.292969 -2.4375 4.292969 -3.023438 C 4.292969 -3.609375 4.191406 -4.066406 3.992188 -4.398438 C 3.792969 -4.730469 3.523438 -4.898438 3.179688 -4.898438 C 2.835938 -4.898438 2.566406 -4.730469 2.371094 -4.398438 C 2.175781 -4.066406 2.078125 -3.609375 2.078125 -3.023438 Z "/>
</g>
<g id="glyph-0-5">
<path d="M 5.863281 -0.234375 C 5.609375 -0.101562 5.34375 -0.00390625 5.066406 0.0585938 C 4.789062 0.125 4.496094 0.15625 4.1875 0.15625 C 3.09375 0.15625 2.261719 -0.203125 1.6875 -0.921875 C 1.113281 -1.640625 0.824219 -2.683594 0.824219 -4.042969 C 0.824219 -5.40625 1.113281 -6.445312 1.6875 -7.167969 C 2.261719 -7.886719 3.097656 -8.246094 4.1875 -8.246094 C 4.496094 -8.246094 4.789062 -8.214844 5.074219 -8.148438 C 5.355469 -8.082031 5.617188 -7.984375 5.863281 -7.855469 L 5.863281 -6.074219 C 5.589844 -6.328125 5.324219 -6.515625 5.0625 -6.632812 C 4.804688 -6.75 4.539062 -6.808594 4.265625 -6.808594 C 3.679688 -6.808594 3.234375 -6.574219 2.9375 -6.109375 C 2.640625 -5.644531 2.488281 -4.957031 2.488281 -4.042969 C 2.488281 -3.128906 2.640625 -2.441406 2.9375 -1.976562 C 3.234375 -1.511719 3.679688 -1.28125 4.265625 -1.28125 C 4.539062 -1.28125 4.804688 -1.339844 5.0625 -1.457031 C 5.320312 -1.574219 5.589844 -1.757812 5.863281 -2.011719 Z "/>
</g>
<g id="glyph-0-6">
<path d="M 2.097656 -2.535156 L 2.097656 -7.21875 L 0.488281 -7.21875 L 0.488281 -8.441406 L 3.6875 -8.441406 L 3.6875 -2.535156 C 3.6875 -2.054688 3.761719 -1.71875 3.910156 -1.519531 C 4.058594 -1.320312 4.3125 -1.21875 4.664062 -1.21875 L 5.933594 -1.21875 L 5.933594 0 L 4.21875 0 C 3.464844 0 2.921875 -0.195312 2.59375 -0.585938 C 2.265625 -0.976562 2.097656 -1.625 2.097656 -2.535156 Z "/>
</g>
<g id="glyph-0-7">
<path d="M 1.199219 -6.074219 L 4.34375 -6.074219 L 4.34375 -1.21875 L 6.320312 -1.21875 L 6.320312 0 L 0.777344 0 L 0.777344 -1.21875 L 2.757812 -1.21875 L 2.757812 -4.855469 L 1.199219 -4.855469 Z M 2.757812 -9.03125 L 4.34375 -9.03125 L 4.34375 -7.175781 L 2.757812 -7.175781 Z "/>
</g>
<g id="glyph-0-8">
<path d="M 2.398438 -0.855469 L 2.398438 2.3125 L 0.8125 2.3125 L 0.8125 -6.074219 L 2.398438 -6.074219 L 2.398438 -5.164062 C 2.5625 -5.515625 2.78125 -5.78125 3.054688 -5.957031 C 3.324219 -6.132812 3.644531 -6.222656 4.007812 -6.222656 C 4.703125 -6.222656 5.242188 -5.945312 5.625 -5.386719 C 6.007812 -4.828125 6.199219 -4.046875 6.199219 -3.03125 C 6.199219 -2.003906 6.007812 -1.21875 5.617188 -0.667969 C 5.230469 -0.117188 4.675781 0.15625 3.953125 0.15625 C 3.628906 0.15625 3.335938 0.0742188 3.078125 -0.09375 C 2.820312 -0.261719 2.59375 -0.515625 2.398438 -0.855469 Z M 4.609375 -3.042969 C 4.609375 -3.628906 4.511719 -4.089844 4.316406 -4.421875 C 4.121094 -4.753906 3.855469 -4.921875 3.511719 -4.921875 C 3.167969 -4.921875 2.894531 -4.753906 2.695312 -4.421875 C 2.496094 -4.089844 2.398438 -3.628906 2.398438 -3.042969 C 2.398438 -2.457031 2.496094 -2 2.695312 -1.664062 C 2.894531 -1.332031 3.167969 -1.167969 3.511719 -1.167969 C 3.855469 -1.167969 4.121094 -1.332031 4.316406 -1.664062 C 4.511719 -1.996094 4.609375 -2.457031 4.609375 -3.042969 Z "/>
</g>
<g id="glyph-0-9">
<path d="M 5.011719 -8.429688 C 4.535156 -7.566406 4.179688 -6.730469 3.949219 -5.917969 C 3.71875 -5.109375 3.601562 -4.296875 3.601562 -3.488281 C 3.601562 -2.683594 3.71875 -1.875 3.949219 -1.0625 C 4.179688 -0.246094 4.535156 0.597656 5.011719 1.464844 L 3.777344 1.464844 C 3.203125 0.628906 2.773438 -0.195312 2.496094 -1.007812 C 2.21875 -1.820312 2.078125 -2.644531 2.078125 -3.488281 C 2.078125 -4.328125 2.21875 -5.15625 2.5 -5.96875 C 2.777344 -6.785156 3.203125 -7.605469 3.777344 -8.429688 Z "/>
</g>
</g>
</defs>
<g fill="rgb(85.098039%, 36.078431%, 36.078431%)" fill-opacity="1">
<use xlink:href="#glyph-0-0" x="30" y="30.3125"/>
<use xlink:href="#glyph-0-1" x="37" y="30.3125"/>
<use xlink:href="#glyph-0-2" x="44" y="30.3125"/>
<use xlink:href="#glyph-0-3" x="51" y="30.3125"/>
<use xlink:href="#glyph-0-4" x="58" y="30.3125"/>
<use xlink:href="#glyph-0-5" x="65" y="30.3125"/>
<use xlink:href="#glyph-0-6" x="72" y="30.3125"/>
<use xlink:href="#glyph-0-7" x="79" y="30.3125"/>
<use xlink:href="#glyph-0-8" x="86" y="30.3125"/>
<use xlink:href="#glyph-0-9" x="93" y="30.3125"/>
</g>
</svg>
