<?xml version="1.0" encoding="UTF-8"?>
<svg xmlns="http://www.w3.org/2000/svg" xmlns:xlink="http://www.w3.org/1999/xlink" width="854" height="480" viewBox="0 0 854 480">
<defs>
<g>
<g id="glyph-0-0">
<path d="M 2.015625 -3 C 2.085938 -3.144531 2.171875 -3.25 2.273438 -3.320312 C 2.378906 -3.386719 2.503906 -3.421875 2.652344 -3.421875 C 2.921875 -3.421875 3.109375 -3.316406 3.222656 -3.109375 C 3.332031 -2.902344 3.386719 -2.511719 3.386719 -1.9375 L 3.386719 0 L 2.886719 0 L 2.886719 -1.914062 C 2.886719 -2.382812 2.859375 -2.675781 2.804688 -2.792969 C 2.753906 -2.90625 2.65625 -2.960938 2.519531 -2.960938 C 2.359375 -2.960938 2.25 -2.902344 2.191406 -2.777344 C 2.132812 -2.65625 2.101562 -2.367188 2.101562 -1.914062 L 2.101562 0 L 1.601562 0 L 1.601562 -1.914062 C 1.601562 -2.390625 1.574219 -2.683594 1.515625 -2.796875 C 1.460938 -2.90625 1.359375 -2.960938 1.210938 -2.960938 C 1.066406 -2.960938 0.964844 -2.902344 0.910156 -2.777344 C 0.851562 -2.65625 0.824219 -2.367188 0.824219 -1.914062 L 0.824219 0 L 0.324219 0 L 0.324219 -3.339844 L 0.824219 -3.339844 L 0.824219 -3.054688 C 0.890625 -3.175781 0.972656 -3.265625 1.070312 -3.328125 C 1.167969 -3.390625 1.28125 -3.421875 1.40625 -3.421875 C 1.558594 -3.421875 1.683594 -3.386719 1.78125 -3.316406 C 1.882812 -3.246094 1.960938 -3.144531 2.015625 -3 Z "/>
</g>
<g id="glyph-0-1">
<path d="M 0.582031 -1.265625 L 0.582031 -3.335938 L 1.128906 -3.335938 L 1.128906 -1.265625 C 1.128906 -0.964844 1.183594 -0.742188 1.289062 -0.601562 C 1.394531 -0.460938 1.5625 -0.390625 1.785156 -0.390625 C 2.042969 -0.390625 2.242188 -0.480469 2.378906 -0.664062 C 2.515625 -0.847656 2.582031 -1.105469 2.582031 -1.445312 L 2.582031 -3.335938 L 3.136719 -3.335938 L 3.136719 0 L 2.582031 0 L 2.582031 -0.5 C 2.484375 -0.308594 2.355469 -0.160156 2.183594 -0.0625 C 2.015625 0.0351562 1.820312 0.0859375 1.597656 0.0859375 C 1.253906 0.0859375 1 -0.0234375 0.832031 -0.25 C 0.664062 -0.472656 0.582031 -0.8125 0.582031 -1.265625 Z "/>
</g>
</g>
</defs>
<g fill="rgb(100%, 83.921569%, 64.705882%)" fill-opacity="1">
<use xlink:href="#glyph-0-0" x="30" y="25.671875"/>
<use xlink:href="#glyph-0-1" x="34" y="25.671875"/>
</g>
</svg>
