<?xml version="1.0" encoding="UTF-8"?>
<svg xmlns="http://www.w3.org/2000/svg" xmlns:xlink="http://www.w3.org/1999/xlink" width="854" height="480" viewBox="0 0 854 480">
<defs>
<g>
<g id="glyph-0-0">
<path d="M 2.730469 -1.539062 C 2.730469 -1.222656 2.789062 -0.988281 2.902344 -0.828125 C 3.019531 -0.667969 3.1875 -0.589844 3.414062 -0.589844 L 4.230469 -0.589844 L 4.230469 0 L 3.34375 0 C 2.925781 0 2.605469 -0.132812 2.375 -0.402344 C 2.144531 -0.667969 2.03125 -1.046875 2.03125 -1.539062 L 2.03125 -5.386719 L 0.910156 -5.386719 L 0.910156 -5.933594 L 2.730469 -5.933594 Z "/>
</g>
<g id="glyph-0-1">
<path d="M 4.253906 -2.476562 L 4.253906 -2.132812 L 1.226562 -2.132812 L 1.226562 -2.113281 C 1.207031 -1.53125 1.316406 -1.113281 1.558594 -0.863281 C 1.800781 -0.609375 2.140625 -0.480469 2.582031 -0.480469 C 2.804688 -0.480469 3.039062 -0.519531 3.28125 -0.589844 C 3.523438 -0.660156 3.785156 -0.765625 4.058594 -0.910156 L 4.058594 -0.214844 C 3.792969 -0.105469 3.539062 -0.0273438 3.289062 0.0273438 C 3.042969 0.0820312 2.804688 0.109375 2.574219 0.109375 C 1.914062 0.109375 1.398438 -0.0898438 1.023438 -0.484375 C 0.652344 -0.878906 0.46875 -1.425781 0.46875 -2.121094 C 0.46875 -2.800781 0.648438 -3.34375 1.015625 -3.75 C 1.378906 -4.152344 1.863281 -4.355469 2.472656 -4.355469 C 3.015625 -4.355469 3.441406 -4.171875 3.753906 -3.804688 C 4.066406 -3.4375 4.234375 -2.996094 4.253906 -2.476562 Z M 3.554688 -2.679688 C 3.523438 -2.972656 3.417969 -3.230469 3.234375 -3.441406 C 3.050781 -3.65625 2.785156 -3.761719 2.441406 -3.761719 C 2.105469 -3.761719 1.828125 -3.652344 1.609375 -3.429688 C 1.390625 -3.207031 1.273438 -2.957031 1.253906 -2.675781 Z "/>
</g>
<g id="glyph-0-2">
<path d="M 3.695312 -4.105469 L 3.695312 -3.421875 C 3.496094 -3.539062 3.292969 -3.625 3.089844 -3.683594 C 2.886719 -3.742188 2.683594 -3.769531 2.472656 -3.769531 C 2.15625 -3.769531 1.917969 -3.71875 1.765625 -3.617188 C 1.609375 -3.515625 1.53125 -3.359375 1.53125 -3.148438 C 1.53125 -2.957031 1.589844 -2.816406 1.707031 -2.722656 C 1.820312 -2.628906 2.113281 -2.539062 2.574219 -2.449219 L 2.855469 -2.394531 C 3.203125 -2.328125 3.464844 -2.199219 3.644531 -2 C 3.824219 -1.804688 3.910156 -1.546875 3.910156 -1.230469 C 3.910156 -0.808594 3.761719 -0.480469 3.464844 -0.246094 C 3.164062 -0.0078125 2.75 0.109375 2.21875 0.109375 C 2.007812 0.109375 1.789062 0.0898438 1.558594 0.0429688 C 1.328125 0 1.078125 -0.0664062 0.808594 -0.15625 L 0.808594 -0.878906 C 1.070312 -0.742188 1.320312 -0.640625 1.558594 -0.574219 C 1.796875 -0.507812 2.019531 -0.476562 2.234375 -0.476562 C 2.542969 -0.476562 2.78125 -0.539062 2.949219 -0.664062 C 3.121094 -0.789062 3.207031 -0.964844 3.207031 -1.1875 C 3.207031 -1.511719 2.894531 -1.738281 2.273438 -1.859375 L 2.246094 -1.867188 L 1.980469 -1.921875 C 1.578125 -2 1.285156 -2.132812 1.101562 -2.320312 C 0.917969 -2.503906 0.824219 -2.757812 0.824219 -3.078125 C 0.824219 -3.488281 0.960938 -3.800781 1.238281 -4.023438 C 1.515625 -4.246094 1.90625 -4.355469 2.417969 -4.355469 C 2.648438 -4.355469 2.867188 -4.335938 3.074219 -4.292969 C 3.285156 -4.25 3.492188 -4.1875 3.695312 -4.105469 Z "/>
</g>
<g id="glyph-0-3">
<rect x="0" y="0" width="0" height="0" mask="url(#mask-0)"/>
</g>
<g id="glyph-0-4">
<path d="M 3.484375 -2.121094 C 3.484375 -2.664062 3.398438 -3.074219 3.226562 -3.347656 C 3.054688 -3.625 2.800781 -3.761719 2.464844 -3.761719 C 2.125 -3.761719 1.867188 -3.625 1.695312 -3.347656 C 1.519531 -3.070312 1.433594 -2.660156 1.433594 -2.121094 C 1.433594 -1.585938 1.519531 -1.179688 1.695312 -0.898438 C 1.867188 -0.621094 2.125 -0.480469 2.464844 -0.480469 C 2.800781 -0.480469 3.054688 -0.621094 3.226562 -0.894531 C 3.398438 -1.171875 3.484375 -1.582031 3.484375 -2.121094 Z M 1.433594 -3.710938 C 1.542969 -3.917969 1.695312 -4.078125 1.894531 -4.1875 C 2.089844 -4.300781 2.316406 -4.355469 2.574219 -4.355469 C 3.085938 -4.355469 3.488281 -4.160156 3.78125 -3.765625 C 4.074219 -3.371094 4.222656 -2.828125 4.222656 -2.136719 C 4.222656 -1.4375 4.074219 -0.886719 3.78125 -0.488281 C 3.484375 -0.0898438 3.082031 0.109375 2.566406 0.109375 C 2.3125 0.109375 2.089844 0.0546875 1.898438 -0.0546875 C 1.703125 -0.164062 1.546875 -0.324219 1.433594 -0.535156 L 1.433594 0 L 0.734375 0 L 0.734375 -5.910156 L 1.433594 -5.910156 Z "/>
</g>
<g id="glyph-0-5">
<path d="M 4.386719 -3.375 C 4.238281 -3.492188 4.085938 -3.578125 3.929688 -3.628906 C 3.777344 -3.683594 3.605469 -3.710938 3.421875 -3.710938 C 2.984375 -3.710938 2.652344 -3.574219 2.421875 -3.300781 C 2.191406 -3.027344 2.078125 -2.632812 2.078125 -2.113281 L 2.078125 0 L 1.375 0 L 1.375 -4.253906 L 2.078125 -4.253906 L 2.078125 -3.421875 C 2.195312 -3.722656 2.371094 -3.953125 2.613281 -4.113281 C 2.855469 -4.273438 3.144531 -4.355469 3.476562 -4.355469 C 3.648438 -4.355469 3.808594 -4.335938 3.957031 -4.292969 C 4.105469 -4.25 4.25 -4.179688 4.386719 -4.089844 Z "/>
</g>
<g id="glyph-0-6">
<path d="M 1.199219 -4.238281 L 2.988281 -4.238281 L 2.988281 -0.542969 L 4.375 -0.542969 L 4.375 0 L 0.902344 0 L 0.902344 -0.542969 L 2.289062 -0.542969 L 2.289062 -3.695312 L 1.199219 -3.695312 Z M 2.289062 -5.890625 L 2.988281 -5.890625 L 2.988281 -5.007812 L 2.289062 -5.007812 Z "/>
</g>
<g id="glyph-0-7">
<path d="M 2.332031 -5.460938 L 2.332031 -4.253906 L 3.917969 -4.253906 L 3.917969 -3.710938 L 2.332031 -3.710938 L 2.332031 -1.402344 C 2.332031 -1.085938 2.390625 -0.867188 2.511719 -0.746094 C 2.628906 -0.621094 2.835938 -0.558594 3.132812 -0.558594 L 3.917969 -0.558594 L 3.917969 0 L 3.066406 0 C 2.542969 0 2.171875 -0.105469 1.957031 -0.316406 C 1.742188 -0.527344 1.632812 -0.886719 1.632812 -1.402344 L 1.632812 -3.710938 L 0.496094 -3.710938 L 0.496094 -4.253906 L 1.632812 -4.253906 L 1.632812 -5.460938 Z "/>
</g>
<g id="glyph-0-8">
<path d="M 2.664062 -2.136719 L 2.433594 -2.136719 C 2.027344 -2.136719 1.71875 -2.066406 1.511719 -1.921875 C 1.304688 -1.78125 1.203125 -1.566406 1.203125 -1.285156 C 1.203125 -1.027344 1.28125 -0.828125 1.433594 -0.6875 C 1.589844 -0.546875 1.804688 -0.476562 2.078125 -0.476562 C 2.460938 -0.476562 2.765625 -0.609375 2.984375 -0.875 C 3.203125 -1.140625 3.316406 -1.511719 3.320312 -1.980469 L 3.320312 -2.136719 Z M 4.023438 -2.425781 L 4.023438 0 L 3.320312 0 L 3.320312 -0.628906 C 3.171875 -0.375 2.980469 -0.191406 2.753906 -0.0703125 C 2.527344 0.0507812 2.253906 0.109375 1.929688 0.109375 C 1.496094 0.109375 1.152344 -0.0117188 0.890625 -0.257812 C 0.632812 -0.5 0.503906 -0.828125 0.503906 -1.238281 C 0.503906 -1.710938 0.664062 -2.070312 0.980469 -2.316406 C 1.300781 -2.5625 1.765625 -2.683594 2.382812 -2.683594 L 3.320312 -2.683594 L 3.320312 -2.796875 C 3.316406 -3.136719 3.230469 -3.378906 3.0625 -3.535156 C 2.890625 -3.6875 2.621094 -3.761719 2.25 -3.761719 C 2.011719 -3.761719 1.769531 -3.730469 1.527344 -3.660156 C 1.285156 -3.59375 1.046875 -3.492188 0.816406 -3.359375 L 0.816406 -4.058594 C 1.074219 -4.15625 1.320312 -4.230469 1.558594 -4.28125 C 1.796875 -4.332031 2.023438 -4.355469 2.25 -4.355469 C 2.601562 -4.355469 2.902344 -4.304688 3.148438 -4.199219 C 3.398438 -4.097656 3.601562 -3.941406 3.753906 -3.734375 C 3.851562 -3.605469 3.921875 -3.449219 3.960938 -3.265625 C 4 -3.078125 4.023438 -2.796875 4.023438 -2.425781 Z "/>
</g>
<g id="glyph-0-9">
<path d="M 3.992188 -2.636719 L 3.992188 0 L 3.289062 0 L 3.289062 -2.636719 C 3.289062 -3.019531 3.222656 -3.296875 3.085938 -3.480469 C 2.953125 -3.660156 2.742188 -3.75 2.457031 -3.75 C 2.128906 -3.75 1.878906 -3.632812 1.703125 -3.402344 C 1.527344 -3.167969 1.4375 -2.835938 1.4375 -2.402344 L 1.4375 0 L 0.742188 0 L 0.742188 -4.253906 L 1.4375 -4.253906 L 1.4375 -3.617188 C 1.5625 -3.859375 1.730469 -4.042969 1.945312 -4.167969 C 2.15625 -4.292969 2.410156 -4.355469 2.699219 -4.355469 C 3.132812 -4.355469 3.457031 -4.214844 3.671875 -3.929688 C 3.882812 -3.644531 3.992188 -3.210938 3.992188 -2.636719 Z "/>
</g>
<g id="glyph-0-10">
<path d="M 3.257812 -2.160156 C 3.257812 -2.683594 3.171875 -3.082031 3 -3.355469 C 2.832031 -3.628906 2.582031 -3.761719 2.253906 -3.761719 C 1.914062 -3.761719 1.652344 -3.628906 1.472656 -3.355469 C 1.292969 -3.082031 1.203125 -2.683594 1.203125 -2.160156 C 1.203125 -1.636719 1.292969 -1.238281 1.476562 -0.960938 C 1.65625 -0.6875 1.917969 -0.550781 2.261719 -0.550781 C 2.585938 -0.550781 2.832031 -0.6875 3 -0.964844 C 3.171875 -1.242188 3.257812 -1.640625 3.257812 -2.160156 Z M 3.957031 -0.273438 C 3.957031 0.363281 3.804688 0.847656 3.503906 1.175781 C 3.203125 1.507812 2.761719 1.671875 2.175781 1.671875 C 1.984375 1.671875 1.78125 1.652344 1.570312 1.617188 C 1.363281 1.582031 1.152344 1.53125 0.941406 1.460938 L 0.941406 0.769531 C 1.191406 0.886719 1.414062 0.972656 1.617188 1.027344 C 1.820312 1.085938 2.007812 1.113281 2.175781 1.113281 C 2.554688 1.113281 2.828125 1.011719 3 0.804688 C 3.171875 0.601562 3.257812 0.273438 3.257812 -0.171875 L 3.257812 -0.675781 C 3.148438 -0.4375 2.996094 -0.261719 2.800781 -0.144531 C 2.609375 -0.0273438 2.375 0.03125 2.101562 0.03125 C 1.605469 0.03125 1.207031 -0.167969 0.910156 -0.566406 C 0.613281 -0.964844 0.46875 -1.496094 0.46875 -2.160156 C 0.46875 -2.828125 0.613281 -3.363281 0.910156 -3.757812 C 1.207031 -4.15625 1.605469 -4.355469 2.101562 -4.355469 C 2.375 -4.355469 2.605469 -4.300781 2.796875 -4.191406 C 2.984375 -4.082031 3.140625 -3.914062 3.257812 -3.6875 L 3.257812 -4.238281 L 3.957031 -4.238281 Z "/>
</g>
</g>
<image id="source-142" x="0" y="0" width="0" height="0"/>
<mask id="mask-0">
<use xlink:href="#source-142"/>
</mask>
</defs>
<g fill="rgb(100%, 83.921569%, 64.705882%)" fill-opacity="1">
<use xlink:href="#glyph-0-0" x="30" y="27.21875"/>
<use xlink:href="#glyph-0-1" x="35" y="27.21875"/>
<use xlink:href="#glyph-0-2" x="40" y="27.21875"/>
<use xlink:href="#glyph-0-2" x="45" y="27.21875"/>
<use xlink:href="#glyph-0-3" x="50" y="27.21875"/>
<use xlink:href="#glyph-0-4" x="55" y="27.21875"/>
<use xlink:href="#glyph-0-5" x="60" y="27.21875"/>
<use xlink:href="#glyph-0-6" x="65" y="27.21875"/>
<use xlink:href="#glyph-0-7" x="70" y="27.21875"/>
<use xlink:href="#glyph-0-7" x="75" y="27.21875"/>
<use xlink:href="#glyph-0-0" x="80" y="27.21875"/>
<use xlink:href="#glyph-0-1" x="85" y="27.21875"/>
<use xlink:href="#glyph-0-3" x="90" y="27.21875"/>
<use xlink:href="#glyph-0-7" x="95" y="27.21875"/>
<use xlink:href="#glyph-0-5" x="100" y="27.21875"/>
<use xlink:href="#glyph-0-8" x="105" y="27.21875"/>
<use xlink:href="#glyph-0-6" x="110" y="27.21875"/>
<use xlink:href="#glyph-0-9" x="115" y="27.21875"/>
<use xlink:href="#glyph-0-6" x="120" y="27.21875"/>
<use xlink:href="#glyph-0-9" x="125" y="27.21875"/>
<use xlink:href="#glyph-0-10" x="130" y="27.21875"/>
</g>
</svg>
