<?xml version="1.0" encoding="UTF-8"?>
<svg xmlns="http://www.w3.org/2000/svg" xmlns:xlink="http://www.w3.org/1999/xlink" width="2400" height="1350" viewBox="0 0 2400 1350">
<defs>
<g>
<g id="glyph-0-0">
<path d="M 2.652344 -1.914062 L 2.972656 -1.699219 C 2.832031 -1.378906 2.695312 -1.164062 2.558594 -1.046875 C 2.421875 -0.929688 2.285156 -0.871094 2.140625 -0.871094 C 1.914062 -0.882812 1.707031 -1.003906 1.523438 -1.226562 C 1.339844 -1.449219 1.210938 -1.609375 1.136719 -1.703125 C 1.0625 -1.796875 0.964844 -1.84375 0.847656 -1.839844 C 0.722656 -1.839844 0.625 -1.78125 0.5625 -1.664062 C 0.496094 -1.546875 0.429688 -1.394531 0.355469 -1.214844 L 0.03125 -1.398438 C 0.125 -1.699219 0.25 -1.921875 0.398438 -2.066406 C 0.546875 -2.210938 0.699219 -2.28125 0.851562 -2.28125 C 1.125 -2.285156 1.371094 -2.121094 1.589844 -1.792969 C 1.804688 -1.464844 1.988281 -1.296875 2.140625 -1.296875 C 2.269531 -1.296875 2.375 -1.371094 2.457031 -1.511719 C 2.539062 -1.652344 2.601562 -1.785156 2.652344 -1.914062 Z "/>
</g>
<g id="glyph-0-1">
<path d="M 0.214844 -1.21875 L 2.796875 -1.21875 L 2.796875 -0.808594 L 0.214844 -0.808594 Z M 0.214844 -2.371094 L 2.796875 -2.371094 L 2.796875 -1.957031 L 0.214844 -1.957031 Z "/>
</g>
<g id="glyph-0-2">
<rect x="0" y="0" width="0" height="0" mask="url(#mask-0)"/>
</g>
<g id="glyph-0-3">
<path d="M 0.660156 -0.414062 L 1.425781 -0.414062 L 1.425781 -3.167969 L 0.507812 -2.726562 L 0.507812 -3.199219 L 1.421875 -3.632812 L 1.914062 -3.632812 L 1.914062 -0.414062 L 2.671875 -0.414062 L 2.671875 0 L 0.660156 0 Z "/>
</g>
<g id="glyph-0-4">
<path d="M 2.734375 -1.59375 L 2.734375 -1.371094 L 0.789062 -1.371094 L 0.789062 -1.359375 C 0.777344 -0.984375 0.847656 -0.71875 1.003906 -0.554688 C 1.15625 -0.390625 1.375 -0.308594 1.660156 -0.308594 C 1.804688 -0.308594 1.953125 -0.332031 2.109375 -0.378906 C 2.265625 -0.425781 2.433594 -0.492188 2.609375 -0.585938 L 2.609375 -0.140625 C 2.4375 -0.0703125 2.273438 -0.015625 2.117188 0.0195312 C 1.957031 0.0546875 1.804688 0.0703125 1.65625 0.0703125 C 1.230469 0.0703125 0.898438 -0.0546875 0.660156 -0.3125 C 0.421875 -0.566406 0.300781 -0.917969 0.300781 -1.363281 C 0.300781 -1.800781 0.417969 -2.148438 0.652344 -2.410156 C 0.886719 -2.671875 1.199219 -2.800781 1.589844 -2.800781 C 1.9375 -2.800781 2.210938 -2.683594 2.414062 -2.445312 C 2.613281 -2.210938 2.722656 -1.925781 2.734375 -1.59375 Z M 2.285156 -1.722656 C 2.265625 -1.914062 2.195312 -2.074219 2.078125 -2.214844 C 1.960938 -2.351562 1.792969 -2.417969 1.570312 -2.417969 C 1.351562 -2.417969 1.175781 -2.347656 1.035156 -2.203125 C 0.894531 -2.0625 0.820312 -1.898438 0.804688 -1.722656 Z "/>
</g>
<g id="glyph-0-5">
<path d="M 0.25 -1.765625 L 2.835938 -1.765625 L 2.835938 -1.355469 L 0.25 -1.355469 Z "/>
</g>
<g id="glyph-0-6">
<path d="M 2.417969 -3.5625 L 2.417969 -3.109375 C 2.316406 -3.171875 2.207031 -3.214844 2.09375 -3.25 C 1.976562 -3.28125 1.855469 -3.296875 1.730469 -3.296875 C 1.417969 -3.296875 1.179688 -3.179688 1.019531 -2.941406 C 0.859375 -2.707031 0.777344 -2.363281 0.777344 -1.90625 C 0.855469 -2.066406 0.964844 -2.191406 1.101562 -2.277344 C 1.242188 -2.367188 1.402344 -2.410156 1.578125 -2.410156 C 1.929688 -2.410156 2.203125 -2.300781 2.394531 -2.085938 C 2.589844 -1.871094 2.6875 -1.566406 2.6875 -1.167969 C 2.6875 -0.773438 2.585938 -0.46875 2.386719 -0.253906 C 2.1875 -0.0390625 1.910156 0.0703125 1.550781 0.0703125 C 1.128906 0.0703125 0.816406 -0.0820312 0.621094 -0.382812 C 0.421875 -0.6875 0.324219 -1.167969 0.324219 -1.820312 C 0.324219 -2.433594 0.441406 -2.902344 0.679688 -3.226562 C 0.917969 -3.550781 1.257812 -3.710938 1.710938 -3.710938 C 1.828125 -3.710938 1.949219 -3.699219 2.070312 -3.671875 C 2.191406 -3.648438 2.308594 -3.613281 2.417969 -3.5625 Z M 1.539062 -2.023438 C 1.328125 -2.023438 1.164062 -1.949219 1.046875 -1.796875 C 0.925781 -1.644531 0.863281 -1.4375 0.863281 -1.167969 C 0.863281 -0.902344 0.925781 -0.695312 1.046875 -0.542969 C 1.164062 -0.390625 1.332031 -0.316406 1.539062 -0.316406 C 1.757812 -0.316406 1.921875 -0.386719 2.035156 -0.53125 C 2.144531 -0.675781 2.199219 -0.886719 2.199219 -1.167969 C 2.199219 -1.453125 2.144531 -1.664062 2.035156 -1.808594 C 1.921875 -1.953125 1.757812 -2.023438 1.539062 -2.023438 Z "/>
</g>
<g id="glyph-0-7">
<path d="M 2.820312 -2.171875 C 2.722656 -2.246094 2.625 -2.300781 2.527344 -2.335938 C 2.429688 -2.367188 2.320312 -2.386719 2.199219 -2.386719 C 1.917969 -2.386719 1.707031 -2.296875 1.558594 -2.121094 C 1.410156 -1.945312 1.335938 -1.691406 1.335938 -1.359375 L 1.335938 0 L 0.882812 0 L 0.882812 -2.734375 L 1.335938 -2.734375 L 1.335938 -2.199219 C 1.410156 -2.394531 1.527344 -2.542969 1.679688 -2.644531 C 1.835938 -2.75 2.019531 -2.800781 2.234375 -2.800781 C 2.34375 -2.800781 2.449219 -2.785156 2.542969 -2.757812 C 2.640625 -2.730469 2.730469 -2.6875 2.820312 -2.628906 Z "/>
</g>
<g id="glyph-0-8">
<path d="M 1.503906 -2.417969 C 1.277344 -2.417969 1.101562 -2.332031 0.984375 -2.152344 C 0.867188 -1.976562 0.8125 -1.714844 0.8125 -1.363281 C 0.8125 -1.015625 0.867188 -0.753906 0.984375 -0.578125 C 1.101562 -0.398438 1.277344 -0.308594 1.503906 -0.308594 C 1.734375 -0.308594 1.90625 -0.398438 2.023438 -0.578125 C 2.140625 -0.757812 2.199219 -1.019531 2.199219 -1.363281 C 2.199219 -1.710938 2.140625 -1.976562 2.023438 -2.152344 C 1.90625 -2.332031 1.734375 -2.417969 1.503906 -2.417969 Z M 1.503906 -2.800781 C 1.882812 -2.800781 2.171875 -2.675781 2.375 -2.429688 C 2.574219 -2.183594 2.675781 -1.832031 2.675781 -1.363281 C 2.675781 -0.898438 2.574219 -0.542969 2.375 -0.296875 C 2.175781 -0.0507812 1.882812 0.0703125 1.503906 0.0703125 C 1.125 0.0703125 0.835938 -0.0507812 0.632812 -0.296875 C 0.433594 -0.542969 0.335938 -0.898438 0.335938 -1.363281 C 0.335938 -1.828125 0.433594 -2.1875 0.632812 -2.429688 C 0.835938 -2.675781 1.125 -2.800781 1.503906 -2.800781 Z "/>
</g>
</g>
<image id="source-106" x="0" y="0" width="0" height="0"/>
<mask id="mask-0">
<use xlink:href="#source-106"/>
</mask>
</defs>
<g fill="rgb(18.039216%, 47.843137%, 18.039216%)" fill-opacity="1">
<use xlink:href="#glyph-0-0" x="30" y="24.641602"/>
<use xlink:href="#glyph-0-1" x="33" y="24.641602"/>
<use xlink:href="#glyph-0-2" x="36" y="24.641602"/>
<use xlink:href="#glyph-0-3" x="39" y="24.641602"/>
<use xlink:href="#glyph-0-4" x="42" y="24.641602"/>
<use xlink:href="#glyph-0-5" x="45" y="24.641602"/>
<use xlink:href="#glyph-0-6" x="48" y="24.641602"/>
<use xlink:href="#glyph-0-2" x="51" y="24.641602"/>
<use xlink:href="#glyph-0-4" x="54" y="24.641602"/>
<use xlink:href="#glyph-0-7" x="57" y="24.641602"/>
<use xlink:href="#glyph-0-7" x="60" y="24.641602"/>
<use xlink:href="#glyph-0-8" x="63" y="24.641602"/>
<use xlink:href="#glyph-0-7" x="66" y="24.641602"/>
</g>
</svg>
