<?xml version="1.0" encoding="UTF-8"?>
<svg xmlns="http://www.w3.org/2000/svg" xmlns:xlink="http://www.w3.org/1999/xlink" width="2400" height="1350" viewBox="0 0 2400 1350">
<defs>
<g>
<g id="glyph-0-0">
<path d="M 0.546875 -2.839844 L 0.546875 -7.695312 L 2.066406 -7.695312 L 2.066406 -2.457031 C 2.066406 -2.074219 2.164062 -1.773438 2.359375 -1.554688 C 2.554688 -1.335938 2.828125 -1.226562 3.175781 -1.226562 C 3.523438 -1.226562 3.792969 -1.335938 3.988281 -1.554688 C 4.183594 -1.773438 4.28125 -2.074219 4.28125 -2.457031 L 4.28125 -7.695312 L 5.804688 -7.695312 L 5.804688 -2.839844 C 5.804688 -1.796875 5.59375 -1.035156 5.179688 -0.5625 C 4.765625 -0.0859375 4.097656 0.148438 3.175781 0.148438 C 2.257812 0.148438 1.589844 -0.0859375 1.171875 -0.5625 C 0.753906 -1.035156 0.546875 -1.796875 0.546875 -2.839844 Z "/>
</g>
<g id="glyph-0-1">
<path d="M 5.519531 -3.746094 L 5.519531 0 L 4.019531 0 L 4.019531 -3.515625 C 4.019531 -3.933594 3.960938 -4.234375 3.84375 -4.414062 C 3.722656 -4.59375 3.53125 -4.683594 3.261719 -4.683594 C 2.992188 -4.683594 2.777344 -4.5625 2.621094 -4.320312 C 2.464844 -4.074219 2.386719 -3.738281 2.386719 -3.304688 L 2.386719 0 L 0.886719 0 L 0.886719 -5.773438 L 2.386719 -5.773438 L 2.386719 -4.90625 C 2.492188 -5.226562 2.675781 -5.472656 2.933594 -5.648438 C 3.191406 -5.824219 3.5 -5.910156 3.867188 -5.910156 C 4.414062 -5.910156 4.824219 -5.730469 5.101562 -5.367188 C 5.378906 -5.003906 5.519531 -4.464844 5.519531 -3.746094 Z "/>
</g>
<g id="glyph-0-2">
<path d="M 1.140625 -5.773438 L 4.128906 -5.773438 L 4.128906 -1.160156 L 6.003906 -1.160156 L 6.003906 0 L 0.738281 0 L 0.738281 -1.160156 L 2.617188 -1.160156 L 2.617188 -4.613281 L 1.140625 -4.613281 Z M 2.617188 -8.582031 L 4.128906 -8.582031 L 4.128906 -6.820312 L 2.617188 -6.820312 Z "/>
</g>
<g id="glyph-0-3">
<path d="M 3.808594 -6.277344 L 3.808594 -5.773438 L 5.582031 -5.773438 L 5.582031 -4.613281 L 3.808594 -4.613281 L 3.808594 0 L 2.296875 0 L 2.296875 -4.613281 L 0.898438 -4.613281 L 0.898438 -5.773438 L 2.296875 -5.773438 L 2.296875 -6.175781 C 2.296875 -6.867188 2.441406 -7.351562 2.730469 -7.617188 C 3.019531 -7.886719 3.554688 -8.019531 4.339844 -8.019531 L 5.582031 -8.019531 L 5.582031 -6.859375 L 4.402344 -6.859375 C 4.175781 -6.859375 4.019531 -6.820312 3.941406 -6.738281 C 3.859375 -6.65625 3.816406 -6.5 3.808594 -6.277344 Z "/>
</g>
<g id="glyph-0-4">
<path d="M 3.175781 -4.683594 C 2.8125 -4.683594 2.53125 -4.527344 2.324219 -4.207031 C 2.117188 -3.890625 2.015625 -3.449219 2.015625 -2.882812 C 2.015625 -2.316406 2.117188 -1.871094 2.324219 -1.554688 C 2.53125 -1.238281 2.8125 -1.078125 3.175781 -1.078125 C 3.539062 -1.078125 3.824219 -1.234375 4.03125 -1.554688 C 4.238281 -1.871094 4.339844 -2.3125 4.339844 -2.882812 C 4.339844 -3.449219 4.238281 -3.890625 4.03125 -4.207031 C 3.824219 -4.527344 3.539062 -4.683594 3.175781 -4.683594 Z M 0.503906 -2.882812 C 0.503906 -3.8125 0.746094 -4.550781 1.230469 -5.09375 C 1.710938 -5.640625 2.359375 -5.910156 3.175781 -5.910156 C 3.992188 -5.910156 4.644531 -5.640625 5.125 -5.09375 C 5.609375 -4.550781 5.851562 -3.8125 5.851562 -2.882812 C 5.851562 -1.949219 5.609375 -1.210938 5.125 -0.667969 C 4.644531 -0.121094 3.992188 0.148438 3.175781 0.148438 C 2.359375 0.148438 1.710938 -0.121094 1.230469 -0.667969 C 0.746094 -1.210938 0.503906 -1.949219 0.503906 -2.882812 Z "/>
</g>
<g id="glyph-0-5">
<path d="M 5.933594 -4.179688 C 5.769531 -4.332031 5.574219 -4.445312 5.351562 -4.519531 C 5.128906 -4.59375 4.886719 -4.632812 4.625 -4.632812 C 4.304688 -4.632812 4.023438 -4.578125 3.785156 -4.464844 C 3.546875 -4.355469 3.363281 -4.191406 3.230469 -3.980469 C 3.148438 -3.847656 3.089844 -3.691406 3.058594 -3.503906 C 3.027344 -3.320312 3.011719 -3.039062 3.011719 -2.660156 L 3.011719 0 L 1.5 0 L 1.5 -5.773438 L 3.011719 -5.773438 L 3.011719 -4.875 C 3.160156 -5.207031 3.382812 -5.460938 3.691406 -5.640625 C 3.996094 -5.820312 4.355469 -5.910156 4.761719 -5.910156 C 4.96875 -5.910156 5.171875 -5.886719 5.367188 -5.835938 C 5.566406 -5.785156 5.753906 -5.714844 5.933594 -5.617188 Z "/>
</g>
<g id="glyph-0-6">
<path d="M 3.554688 -5.195312 C 3.667969 -5.4375 3.8125 -5.621094 3.988281 -5.738281 C 4.164062 -5.855469 4.378906 -5.910156 4.632812 -5.910156 C 5.132812 -5.910156 5.476562 -5.738281 5.667969 -5.394531 C 5.859375 -5.050781 5.953125 -4.339844 5.953125 -3.253906 L 5.953125 0 L 4.714844 0 L 4.714844 -3.707031 C 4.714844 -4.136719 4.683594 -4.421875 4.617188 -4.566406 C 4.550781 -4.710938 4.433594 -4.78125 4.261719 -4.78125 C 4.089844 -4.78125 3.96875 -4.710938 3.902344 -4.5625 C 3.832031 -4.414062 3.796875 -4.128906 3.796875 -3.707031 L 3.796875 0 L 2.578125 0 L 2.578125 -3.707031 C 2.578125 -4.128906 2.542969 -4.414062 2.472656 -4.5625 C 2.40625 -4.710938 2.285156 -4.78125 2.113281 -4.78125 C 1.941406 -4.78125 1.824219 -4.710938 1.757812 -4.566406 C 1.691406 -4.421875 1.660156 -4.136719 1.660156 -3.707031 L 1.660156 0 L 0.421875 0 L 0.421875 -5.773438 L 1.519531 -5.773438 L 1.519531 -5.175781 C 1.605469 -5.402344 1.742188 -5.582031 1.933594 -5.714844 C 2.121094 -5.847656 2.332031 -5.910156 2.566406 -5.910156 C 2.800781 -5.910156 3.011719 -5.84375 3.207031 -5.703125 C 3.398438 -5.5625 3.515625 -5.394531 3.554688 -5.195312 Z "/>
</g>
<g id="glyph-0-7">
<rect x="0" y="0" width="0" height="0" mask="url(#mask-0)"/>
</g>
<g id="glyph-0-8">
<path d="M 3.382812 0.117188 C 3.332031 0.128906 3.292969 0.136719 3.261719 0.140625 C 3.226562 0.148438 3.195312 0.148438 3.164062 0.148438 C 2.28125 0.148438 1.613281 -0.1875 1.15625 -0.859375 C 0.703125 -1.535156 0.472656 -2.527344 0.472656 -3.839844 C 0.472656 -5.15625 0.703125 -6.152344 1.15625 -6.824219 C 1.613281 -7.496094 2.285156 -7.835938 3.175781 -7.835938 C 4.070312 -7.835938 4.742188 -7.496094 5.199219 -6.824219 C 5.652344 -6.152344 5.882812 -5.15625 5.882812 -3.839844 C 5.882812 -2.9375 5.773438 -2.179688 5.554688 -1.570312 C 5.339844 -0.960938 5.023438 -0.523438 4.613281 -0.261719 L 5.570312 0.675781 L 4.53125 1.449219 Z M 3.175781 -6.46875 C 2.785156 -6.46875 2.503906 -6.261719 2.324219 -5.847656 C 2.144531 -5.433594 2.054688 -4.765625 2.054688 -3.839844 C 2.054688 -2.917969 2.144531 -2.25 2.324219 -1.835938 C 2.503906 -1.421875 2.785156 -1.214844 3.175781 -1.214844 C 3.566406 -1.214844 3.851562 -1.421875 4.03125 -1.835938 C 4.210938 -2.25 4.296875 -2.917969 4.296875 -3.839844 C 4.296875 -4.765625 4.210938 -5.433594 4.03125 -5.847656 C 3.851562 -6.261719 3.566406 -6.46875 3.175781 -6.46875 Z "/>
</g>
<g id="glyph-0-9">
<path d="M 0.824219 -2.015625 L 0.824219 -5.773438 L 2.335938 -5.773438 L 2.335938 -2.246094 C 2.335938 -1.832031 2.394531 -1.535156 2.511719 -1.355469 C 2.628906 -1.175781 2.820312 -1.085938 3.09375 -1.085938 C 3.363281 -1.085938 3.574219 -1.207031 3.730469 -1.449219 C 3.882812 -1.6875 3.957031 -2.027344 3.957031 -2.457031 L 3.957031 -5.773438 L 5.46875 -5.773438 L 5.46875 0 L 3.957031 0 L 3.957031 -0.855469 C 3.851562 -0.535156 3.671875 -0.289062 3.414062 -0.113281 C 3.160156 0.0625 2.851562 0.148438 2.488281 0.148438 C 1.9375 0.148438 1.523438 -0.03125 1.246094 -0.398438 C 0.964844 -0.761719 0.824219 -1.300781 0.824219 -2.015625 Z "/>
</g>
<g id="glyph-0-10">
<path d="M 3.609375 -2.710938 C 3.042969 -2.710938 2.652344 -2.640625 2.425781 -2.496094 C 2.203125 -2.351562 2.09375 -2.101562 2.09375 -1.753906 C 2.09375 -1.492188 2.167969 -1.285156 2.324219 -1.128906 C 2.480469 -0.972656 2.6875 -0.898438 2.953125 -0.898438 C 3.351562 -0.898438 3.660156 -1.046875 3.882812 -1.347656 C 4.101562 -1.648438 4.210938 -2.070312 4.210938 -2.609375 L 4.210938 -2.710938 Z M 5.710938 -3.292969 L 5.710938 0 L 4.210938 0 L 4.210938 -0.644531 C 4.027344 -0.390625 3.796875 -0.195312 3.511719 -0.0585938 C 3.226562 0.0820312 2.910156 0.148438 2.566406 0.148438 C 1.910156 0.148438 1.398438 -0.0234375 1.035156 -0.371094 C 0.667969 -0.71875 0.484375 -1.203125 0.484375 -1.824219 C 0.484375 -2.496094 0.703125 -2.996094 1.140625 -3.316406 C 1.574219 -3.636719 2.25 -3.796875 3.164062 -3.796875 L 4.210938 -3.796875 L 4.210938 -4.050781 C 4.210938 -4.296875 4.121094 -4.480469 3.945312 -4.605469 C 3.769531 -4.730469 3.507812 -4.792969 3.164062 -4.792969 C 2.804688 -4.792969 2.453125 -4.746094 2.117188 -4.65625 C 1.777344 -4.566406 1.425781 -4.421875 1.054688 -4.222656 L 1.054688 -5.511719 C 1.390625 -5.648438 1.726562 -5.75 2.070312 -5.8125 C 2.414062 -5.878906 2.78125 -5.910156 3.164062 -5.910156 C 4.101562 -5.910156 4.761719 -5.722656 5.140625 -5.339844 C 5.519531 -4.957031 5.710938 -4.277344 5.710938 -3.292969 Z "/>
</g>
<g id="glyph-0-11">
<path d="M 3.554688 -7.410156 L 3.554688 -5.773438 L 5.53125 -5.773438 L 5.53125 -4.613281 L 3.554688 -4.613281 L 3.554688 -1.882812 C 3.554688 -1.625 3.617188 -1.4375 3.746094 -1.328125 C 3.871094 -1.214844 4.078125 -1.160156 4.371094 -1.160156 L 5.53125 -1.160156 L 5.53125 0 L 4.261719 0 C 3.394531 0 2.8125 -0.136719 2.503906 -0.414062 C 2.199219 -0.691406 2.046875 -1.203125 2.046875 -1.953125 L 2.046875 -4.613281 L 0.570312 -4.613281 L 0.570312 -5.773438 L 2.046875 -5.773438 L 2.046875 -7.410156 Z "/>
</g>
<g id="glyph-0-12">
<path d="M 0.957031 -5.773438 L 5.570312 -5.773438 L 5.570312 -4.59375 L 2.535156 -1.128906 L 5.570312 -1.128906 L 5.570312 0 L 0.835938 0 L 0.835938 -1.179688 L 3.875 -4.644531 L 0.957031 -4.644531 Z "/>
</g>
<g id="glyph-0-13">
<path d="M 5.730469 -6.355469 L 2.457031 -6.355469 L 2.457031 -4.695312 L 5.4375 -4.695312 L 5.4375 -3.355469 L 2.457031 -3.355469 L 2.457031 0 L 0.9375 0 L 0.9375 -7.695312 L 5.730469 -7.695312 Z "/>
</g>
<g id="glyph-0-14">
<path d="M 1.996094 -2.40625 L 1.996094 -6.859375 L 0.464844 -6.859375 L 0.464844 -8.019531 L 3.503906 -8.019531 L 3.503906 -2.40625 C 3.503906 -1.953125 3.574219 -1.632812 3.714844 -1.441406 C 3.855469 -1.253906 4.097656 -1.160156 4.433594 -1.160156 L 5.636719 -1.160156 L 5.636719 0 L 4.011719 0 C 3.292969 0 2.777344 -0.1875 2.464844 -0.558594 C 2.152344 -0.929688 1.996094 -1.542969 1.996094 -2.40625 Z "/>
</g>
</g>
<image id="source-12" x="0" y="0" width="0" height="0"/>
<mask id="mask-0">
<use xlink:href="#source-12"/>
</mask>
</defs>
<g fill="rgb(10.196078%, 10.196078%, 10.196078%)" fill-opacity="1">
<use xlink:href="#glyph-0-0" x="30" y="29.797852"/>
<use xlink:href="#glyph-0-1" x="36" y="29.797852"/>
<use xlink:href="#glyph-0-2" x="42" y="29.797852"/>
<use xlink:href="#glyph-0-3" x="48" y="29.797852"/>
<use xlink:href="#glyph-0-4" x="54" y="29.797852"/>
<use xlink:href="#glyph-0-5" x="60" y="29.797852"/>
<use xlink:href="#glyph-0-6" x="66" y="29.797852"/>
<use xlink:href="#glyph-0-7" x="72" y="29.797852"/>
<use xlink:href="#glyph-0-8" x="78" y="29.797852"/>
<use xlink:href="#glyph-0-9" x="84" y="29.797852"/>
<use xlink:href="#glyph-0-10" x="90" y="29.797852"/>
<use xlink:href="#glyph-0-1" x="96" y="29.797852"/>
<use xlink:href="#glyph-0-11" x="102" y="29.797852"/>
<use xlink:href="#glyph-0-2" x="108" y="29.797852"/>
<use xlink:href="#glyph-0-12" x="114" y="29.797852"/>
<use xlink:href="#glyph-0-10" x="120" y="29.797852"/>
<use xlink:href="#glyph-0-11" x="126" y="29.797852"/>
<use xlink:href="#glyph-0-2" x="132" y="29.797852"/>
<use xlink:href="#glyph-0-4" x="138" y="29.797852"/>
<use xlink:href="#glyph-0-1" x="144" y="29.797852"/>
<use xlink:href="#glyph-0-7" x="150" y="29.797852"/>
<use xlink:href="#glyph-0-13" x="156" y="29.797852"/>
<use xlink:href="#glyph-0-4" x="162" y="29.797852"/>
<use xlink:href="#glyph-0-5" x="168" y="29.797852"/>
<use xlink:href="#glyph-0-6" x="174" y="29.797852"/>
<use xlink:href="#glyph-0-9" x="180" y="29.797852"/>
<use xlink:href="#glyph-0-14" x="186" y="29.797852"/>
<use xlink:href="#glyph-0-10" x="192" y="29.797852"/>
</g>
</svg>
